<?xml version="1.0" encoding="utf-8"?>
<!-- Generator: Adobe Illustrator 15.0.2, SVG Export Plug-In . SVG Version: 6.00 Build 0)  -->
<!DOCTYPE svg PUBLIC "-//W3C//DTD SVG 1.1//EN" "http://www.w3.org/Graphics/SVG/1.1/DTD/svg11.dtd">
<svg version="1.1" id="Layer_1" xmlns="http://www.w3.org/2000/svg" xmlns:xlink="http://www.w3.org/1999/xlink" x="0px" y="0px"
	 width="256px" height="256px" viewBox="0 0 256 256" enable-background="new 0 0 256 256" xml:space="preserve">
<g>
	<path fill="#4D4F53" d="M128.599,0.782c-70.696,0-128,57.308-128,128.005c0,70.691,57.304,128.005,128,128.005
		c70.696,0,128-57.313,128-128.005C256.599,58.09,199.295,0.782,128.599,0.782"/>
	<g>
		<path fill="#FFFFFF" d="M212.104,148.277c0,7.54-5.099,14.097-12.42,15.941l-0.795,0.105c-1.486,0-2.837-0.999-3.215-2.495
			c-0.436-1.777,0.637-3.567,2.401-4.009c4.365-1.106,7.422-5.031,7.422-9.545V84.367c0-5.43-4.407-9.85-9.842-9.85H86.465
			c-4.465,0-8.394,3.028-9.524,7.367c-0.477,1.75-2.322,2.813-4.048,2.347c-1.765-0.465-2.817-2.277-2.341-4.033
			c1.905-7.235,8.453-12.284,15.914-12.284h109.19c9.066,0,16.448,7.38,16.448,16.454V148.277L212.104,148.277z"/>
		<path fill="#FFFFFF" d="M170.733,92.834H61.543c-9.068,0-16.449,7.386-16.449,16.458v63.91c0,9.073,7.381,16.455,16.449,16.455
			h109.19c9.067,0,16.448-7.382,16.448-16.455v-63.91C187.182,100.22,179.801,92.834,170.733,92.834z M180.575,173.204
			c0,5.432-4.405,9.847-9.842,9.847H61.543c-5.436,0-9.842-4.415-9.842-9.847v-63.912c0-5.432,4.405-9.852,9.842-9.852h109.19
			c5.437,0,9.842,4.42,9.842,9.852V173.204L180.575,173.204z"/>
		<path fill="#FFFFFF" d="M123.847,158.129H65.472c-1.826,0-3.314,1.479-3.314,3.303c0,1.825,1.488,3.304,3.314,3.304h58.374
			c1.826,0,3.314-1.479,3.314-3.304C127.16,159.607,125.672,158.129,123.847,158.129z"/>
		<path fill="#FFFFFF" d="M166.07,147.007h-25c-1.827,0-3.315,1.479-3.315,3.304v18.313c0,1.826,1.488,3.303,3.315,3.303h25
			c1.825,0,3.293-1.477,3.293-3.303v-18.313C169.363,148.485,167.896,147.007,166.07,147.007z M162.757,165.32h-18.394v-11.707
			h18.394V165.32z"/>
	</g>
</g>
</svg>
