<?xml version="1.0" encoding="utf-8"?>
<!-- Generator: Adobe Illustrator 15.0.2, SVG Export Plug-In . SVG Version: 6.00 Build 0)  -->
<!DOCTYPE svg PUBLIC "-//W3C//DTD SVG 1.1//EN" "http://www.w3.org/Graphics/SVG/1.1/DTD/svg11.dtd">
<svg version="1.1" id="Layer_1" xmlns="http://www.w3.org/2000/svg" xmlns:xlink="http://www.w3.org/1999/xlink" x="0px" y="0px"
	 width="256px" height="256px" viewBox="0 0 256 256" enable-background="new 0 0 256 256" xml:space="preserve">
<g>
	<path fill="#4D4F53" d="M127.992,0.784C57.298,0.784-0.005,58.096-0.005,128.788c0,70.69,57.303,127.997,127.997,127.997
		c70.697,0,128.003-57.307,128.003-127.997C255.995,58.096,198.688,0.784,127.992,0.784z"/>
	<g>
		<g>
			<path fill="#FFFFFF" d="M154.405,215.237c-1.04,0-2.943-0.479-4.167-3.632l-22.243-38.951l-22.243,38.948
				c-1.217,3.156-3.12,3.635-4.16,3.635c-1.11,0-3.133-0.528-4.217-4.069l-3.56-11.58c-0.146-0.477-0.5-1.259-1.29-1.259
				c-0.336,0-0.716,0.134-1.1,0.387l-10.153,6.655c-1.273,0.843-2.423,1.257-3.507,1.257c-1.213,0-2.29-0.546-2.957-1.492
				c-0.87-1.236-0.93-2.918-0.18-5l0.077-0.184l25.567-56.916l2.63,2.211c2.157,1.811,4.776,2.768,7.583,2.768
				c2.38,0,4.733-0.627,7.026-1.862c2.667-1.443,6.49-2.273,10.483-2.273c4.05,0,7.776,0.809,10.493,2.275
				c2.29,1.233,4.644,1.86,6.99,1.86c2.823,0,5.457-0.961,7.62-2.778l2.63-2.214l25.63,57.11c0.753,2.083,0.696,3.767-0.173,5.003
				c-0.667,0.946-1.744,1.492-2.954,1.492c-1.083,0-2.233-0.414-3.52-1.261l-10.13-6.645c-0.394-0.26-0.777-0.394-1.11-0.394
				c-0.793,0-1.149,0.782-1.29,1.248l-3.563,11.594C157.545,214.707,155.519,215.237,154.405,215.237z M127.995,162.181
				l26.163,45.816l3.054-9.937c0.91-2.989,3.366-4.927,6.26-4.927c1.356,0,2.727,0.432,3.964,1.249l8.017,5.258l-21.78-48.521
				c-2.49,1.375-5.273,2.09-8.193,2.09c-3.217,0-6.4-0.837-9.457-2.483c-1.916-1.036-4.916-1.653-8.026-1.653
				c-3.11,0-6.106,0.617-8.013,1.65c-3.067,1.649-6.247,2.486-9.46,2.486c-2.934,0-5.71-0.712-8.19-2.081l-21.793,48.515l8.03-5.265
				c1.227-0.811,2.597-1.244,3.957-1.244c2.89,0,5.347,1.938,6.257,4.936l3.05,9.922L127.995,162.181z"/>
		</g>
		<path fill="#FFFFFF" d="M145.476,141.516L145.476,141.516c-2.23,0-4.478-0.604-6.677-1.795c-2.787-1.505-6.724-2.368-10.804-2.368
			s-8.017,0.863-10.803,2.37c-2.2,1.189-4.45,1.793-6.68,1.793c-5.883,0-10.433-4.154-11.586-10.585
			c-1.173-6.546-7.34-14.281-13.467-16.89c-4.087-1.744-6.914-4.894-7.767-8.644c-0.86-3.796,0.293-7.747,3.256-11.12
			c4.384-5.003,6.587-14.655,4.807-21.073c-1.173-4.222-0.553-8.213,1.747-11.238c2.4-3.158,6.26-4.82,10.887-4.605
			c0.22,0.01,0.44,0.015,0.663,0.015c6.626,0,15.063-4.217,18.81-9.4c2.64-3.639,6.237-5.642,10.13-5.642
			c3.897,0,7.494,2.003,10.13,5.64c3.88,5.36,12.763,9.687,19.483,9.387c4.59-0.215,8.483,1.447,10.887,4.606
			c2.296,3.025,2.92,7.017,1.746,11.239c-1.78,6.418,0.424,16.07,4.807,21.075c2.96,3.372,4.113,7.323,3.25,11.12
			c-0.85,3.749-3.677,6.896-7.757,8.64c-6.13,2.606-12.296,10.34-13.47,16.888C155.901,137.362,151.352,141.516,145.476,141.516z
			 M127.995,132.159c4.986,0,9.7,1.063,13.273,2.993c1.434,0.776,2.85,1.17,4.207,1.17c3.293,0,5.776-2.42,6.479-6.313
			c1.49-8.32,8.76-17.435,16.547-20.746c2.563-1.095,4.243-2.875,4.729-5.012c0.483-2.132-0.26-4.457-2.093-6.547
			c-5.573-6.362-8.167-17.731-5.907-25.887c0.73-2.623,0.417-5.005-0.876-6.708c-1.347-1.77-3.677-2.688-6.514-2.56
			c-8.384,0.385-19.063-4.813-23.927-11.528c-1.633-2.252-3.736-3.494-5.923-3.494c-2.183,0-4.287,1.242-5.923,3.495
			c-4.68,6.474-14.79,11.547-23.013,11.547c-0.307,0-0.607-0.007-0.903-0.02c-2.86-0.127-5.17,0.79-6.517,2.56
			c-1.293,1.702-1.604,4.083-0.877,6.707c2.264,8.155-0.33,19.526-5.907,25.887c-1.833,2.091-2.577,4.415-2.093,6.545
			c0.487,2.138,2.167,3.918,4.737,5.017c7.783,3.313,15.053,12.428,16.543,20.75c0.697,3.89,3.18,6.308,6.473,6.308
			c1.36,0,2.777-0.394,4.21-1.17C118.295,133.223,123.008,132.159,127.995,132.159z"/>
		<path fill="#FFFFFF" d="M128.005,119.864c-14.267,0-25.87-11.602-25.87-25.862c0-14.27,11.603-25.878,25.87-25.878
			c14.26,0,25.863,11.608,25.863,25.878C153.868,108.263,142.265,119.864,128.005,119.864z M128.005,73.319
			c-11.4,0-20.676,9.278-20.676,20.683c0,11.397,9.276,20.667,20.676,20.667c11.396,0,20.67-9.27,20.67-20.667
			C148.675,82.598,139.401,73.319,128.005,73.319z"/>
	</g>
</g>
</svg>
