<?xml version="1.0" encoding="utf-8"?>
<!-- Generator: Adobe Illustrator 15.0.2, SVG Export Plug-In . SVG Version: 6.00 Build 0)  -->
<!DOCTYPE svg PUBLIC "-//W3C//DTD SVG 1.1//EN" "http://www.w3.org/Graphics/SVG/1.1/DTD/svg11.dtd">
<svg version="1.1" id="Layer_1" xmlns="http://www.w3.org/2000/svg" xmlns:xlink="http://www.w3.org/1999/xlink" x="0px" y="0px"
	 width="256px" height="256px" viewBox="0 0 256 256" enable-background="new 0 0 256 256" xml:space="preserve">
<g>
	<g>
		<path fill="#4D4F53" d="M128.193,0.785C57.5,0.785,0.194,58.096,0.194,128.788c0,70.689,57.306,127.996,127.999,127.996
			c70.695,0,128-57.307,128-127.996C256.193,58.096,198.888,0.785,128.193,0.785z"/>
	</g>
	<g>
		<path fill="#FFFFFF" d="M198.741,105.254c0,0,0,0-70.545-41.136h-3.713c0,0,0,0-70.543,41.136v3.76c0,1.147,0,1.147,0,43.3
			c0,0,0,0,0,3.76c0,0,0,0,70.543,37.38h3.713c0,0,0,0,70.545-37.38c0-3.76,3.71-3.76,3.71-3.76v-43.3
			C202.451,109.014,198.741,109.014,198.741,105.254z M195.027,148.599c0,0,0,0-66.831,41.141c0,0,0,0-70.543-41.141
			c0-7.363,0-19.713,0-39.584l70.543-37.421c0,0,0,0,66.831,41.133C195.027,119.728,195.027,131.025,195.027,148.599z"/>
		<path fill="#FFFFFF" d="M139.335,149.556c3.71,0,3.71,0,3.71,0s0,0,40.843-22.423c3.715-3.76,3.715-3.76,3.715-7.528
			c-3.715,0-3.715,0-3.715,0s0,0-44.553,26.185C139.335,145.789,135.621,149.556,139.335,149.556z"/>
		<path fill="#FFFFFF" d="M65.079,113.873c0,3.767,0,3.767,3.715,7.528c0,0,0,0,55.689,29.895v15.739c0,0,0,0,3.713,0
			c0,0,0,0,0-15.739c0-3.759,0-3.759,0-3.759s0,0-55.691-33.665C68.793,113.873,68.793,113.873,65.079,113.873z"/>
	</g>
</g>
</svg>
