<?xml version="1.0" encoding="utf-8"?>
<!-- Generator: Adobe Illustrator 15.0.2, SVG Export Plug-In . SVG Version: 6.00 Build 0)  -->
<!DOCTYPE svg PUBLIC "-//W3C//DTD SVG 1.1//EN" "http://www.w3.org/Graphics/SVG/1.1/DTD/svg11.dtd">
<svg version="1.1" id="Layer_1" xmlns="http://www.w3.org/2000/svg" xmlns:xlink="http://www.w3.org/1999/xlink" x="0px" y="0px"
	 width="256px" height="256px" viewBox="0 0 256 256" enable-background="new 0 0 256 256" xml:space="preserve">
<g>
	<path fill="#4D4F53" d="M128.797,0.782c-70.697,0-128,57.309-128,128.005c0,70.687,57.303,128.003,128,128.003
		c70.707,0,128-57.316,128-128.003C256.797,58.091,199.504,0.782,128.797,0.782"/>
	<g>
		<path fill="#FFFFFF" d="M194.007,69.907c-0.368-1.637-1.934-2.713-3.582-2.56c-10.128,1.097-17.64,1.617-23.637,1.617
			c-12.395,0-20.024-2.144-27.218-7.638c-2.594-1.984-5.236-4.475-8.358-7.838c-0.623-0.68-1.493-1.062-2.415-1.062
			c-0.928,0-1.8,0.382-2.427,1.062c-11.097,12-19.086,15.466-35.585,15.466c-5.988,0-13.503-0.51-23.617-1.606
			c-1.658-0.173-3.21,0.923-3.582,2.56c-13.682,60.738,4.89,105.434,53.687,129.271c2.967,1.446,6.195,3.104,9.704,5.427
			c0.55,0.356,1.185,0.546,1.82,0.546c0.55,0,1.111-0.14,1.602-0.426l9.922-5.547C189.125,175.341,207.674,130.645,194.007,69.907z
			 M137.269,193.327l-8.358,4.664c-3.155-1.95-6.046-3.438-8.735-4.747C75.204,171.281,57.693,130.167,69.41,74.223
			c8.988,0.922,15.66,1.337,21.375,1.337c17.079,0,26.77-3.724,38.012-15.048c2.392,2.425,4.578,4.385,6.767,6.045
			c8.352,6.395,17.401,9.003,31.225,9.003c5.716,0,12.407-0.415,21.391-1.337C199.9,130.167,182.389,171.281,137.269,193.327z"/>
		<path fill="#FFFFFF" d="M173.169,88.708c-1.801,0.257-3.051,1.933-2.799,3.74c5.526,38.95-7.435,67.01-37.495,81.144
			c-1.651,0.773-2.352,2.74-1.578,4.394c0.557,1.193,1.747,1.896,2.986,1.896c0.476,0,0.952-0.104,1.403-0.323
			c32.942-15.48,47.193-45.927,41.227-88.047C176.646,89.717,175.073,88.458,173.169,88.708z"/>
	</g>
</g>
</svg>
